HIERARCHY
ROOT hip
{
OFFSET -0.38 87.36 -0.27
CHANNELS 6 Xposition Yposition Zposition Zrotation Xrotation Yrotation
JOINT abdomen
{
OFFSET 0 7.23 0
CHANNELS 6 Xposition Yposition Zposition Zrotation Xrotation Yrotation
JOINT chest
{
OFFSET 0 16.54 0
CHANNELS 6 Xposition Yposition Zposition Zrotation Xrotation Yrotation
JOINT neck
{
OFFSET 0 34.21 0
CHANNELS 6 Xposition Yposition Zposition Zrotation Xrotation Yrotation
JOINT head
{
OFFSET 0 6.29 0
CHANNELS 6 Xposition Yposition Zposition Zrotation Xrotation Yrotation
End Site
{
OFFSET 0 21.21 0
}
}
}
JOINT lCollar
{
OFFSET 4.06 26.61 -1.12
CHANNELS 6 Xposition Yposition Zposition Zrotation Xrotation Yrotation
JOINT lShldr
{
OFFSET 14.17 0 0
CHANNELS 6 Xposition Yposition Zposition Zrotation Xrotation Yrotation
JOINT lForeArm
{
OFFSET 26.12 0 0
CHANNELS 6 Xposition Yposition Zposition Zrotation Xrotation Yrotation
JOINT lHand
{
OFFSET 27.71 0 0
CHANNELS 6 Xposition Yposition Zposition Zrotation Xrotation Yrotation
JOINT lThumb1
{
OFFSET 2.29 -0.46 1.83
CHANNELS 6 Xposition Yposition Zposition Zrotation Xrotation Yrotation
JOINT lThumb2
{
OFFSET 5.29 0 0
CHANNELS 6 Xposition Yposition Zposition Zrotation Xrotation Yrotation
JOINT lThumb3
{
OFFSET 3.01 0 0
CHANNELS 6 Xposition Yposition Zposition Zrotation Xrotation Yrotation
End Site
{
OFFSET 2.62 0 0
}
}
}
}
JOINT lIndex1
{
OFFSET 9.37 0.29 2.59
CHANNELS 6 Xposition Yposition Zposition Zrotation Xrotation Yrotation
JOINT lIndex2
{
OFFSET 4.34 0 0
CHANNELS 6 Xposition Yposition Zposition Zrotation Xrotation Yrotation
JOINT lIndex3
{
OFFSET 2.16 0 0
CHANNELS 6 Xposition Yposition Zposition Zrotation Xrotation Yrotation
End Site
{
OFFSET 2.20 0 0
}
}
}
}
JOINT lMid1
{
OFFSET 9.47 0.83 0.29
CHANNELS 6 Xposition Yposition Zposition Zrotation Xrotation Yrotation
JOINT lMid2
{
OFFSET 4.77 0 0
CHANNELS 6 Xposition Yposition Zposition Zrotation Xrotation Yrotation
JOINT lMid3
{
OFFSET 2.87 0 0
CHANNELS 6 Xposition Yposition Zposition Zrotation Xrotation Yrotation
End Site
{
OFFSET 2.09 0 0
}
}
}
}
JOINT lRing1
{
OFFSET 8.65 1.01 -1.70
CHANNELS 6 Xposition Yposition Zposition Zrotation Xrotation Yrotation
JOINT lRing2
{
OFFSET 4.54 0 0
CHANNELS 6 Xposition Yposition Zposition Zrotation Xrotation Yrotation
JOINT lRing3
{
OFFSET 2.50 0 0
CHANNELS 6 Xposition Yposition Zposition Zrotation Xrotation Yrotation
End Site
{
OFFSET 2.20 0 0
}
}
}
}
JOINT lPinky1
{
OFFSET 7.69 0.66 -3.90
CHANNELS 6 Xposition Yposition Zposition Zrotation Xrotation Yrotation
JOINT lPinky2
{
OFFSET 3.21 0 0
CHANNELS 6 Xposition Yposition Zposition Zrotation Xrotation Yrotation
JOINT lPinky3
{
OFFSET 1.92 0 0
CHANNELS 6 Xposition Yposition Zposition Zrotation Xrotation Yrotation
End Site
{
OFFSET 1.78 0 0
}
}
}
}
}
}
}
}
JOINT rCollar
{
OFFSET -4.06 26.61 -1.12
CHANNELS 6 Xposition Yposition Zposition Zrotation Xrotation Yrotation
JOINT rShldr
{
OFFSET -14.17 0 0
CHANNELS 6 Xposition Yposition Zposition Zrotation Xrotation Yrotation
JOINT rForeArm
{
OFFSET -26.12 0 0
CHANNELS 6 Xposition Yposition Zposition Zrotation Xrotation Yrotation
JOINT rHand
{
OFFSET -27.71 0 0
CHANNELS 6 Xposition Yposition Zposition Zrotation Xrotation Yrotation
JOINT rThumb1
{
OFFSET -2.29 -0.46 1.83
CHANNELS 6 Xposition Yposition Zposition Zrotation Xrotation Yrotation
JOINT rThumb2
{
OFFSET -5.29 0 0
CHANNELS 6 Xposition Yposition Zposition Zrotation Xrotation Yrotation
JOINT rThumb3
{
OFFSET -3.01 0 0
CHANNELS 6 Xposition Yposition Zposition Zrotation Xrotation Yrotation
End Site
{
OFFSET -2.62 0 0
}
}
}
}
JOINT rIndex1
{
OFFSET -9.37 0.29 2.59
CHANNELS 6 Xposition Yposition Zposition Zrotation Xrotation Yrotation
JOINT rIndex2
{
OFFSET -4.34 0 0
CHANNELS 6 Xposition Yposition Zposition Zrotation Xrotation Yrotation
JOINT rIndex3
{
OFFSET -2.16 0 0
CHANNELS 6 Xposition Yposition Zposition Zrotation Xrotation Yrotation
End Site
{
OFFSET -2.20 0 0
}
}
}
}
JOINT rMid1
{
OFFSET -9.47 0.83 0.29
CHANNELS 6 Xposition Yposition Zposition Zrotation Xrotation Yrotation
JOINT rMid2
{
OFFSET -4.77 0 0
CHANNELS 6 Xposition Yposition Zposition Zrotation Xrotation Yrotation
JOINT rMid3
{
OFFSET -2.87 0 0
CHANNELS 6 Xposition Yposition Zposition Zrotation Xrotation Yrotation
End Site
{
OFFSET -2.09 0 0
}
}
}
}
JOINT rRing1
{
OFFSET -8.65 1.01 -1.70
CHANNELS 6 Xposition Yposition Zposition Zrotation Xrotation Yrotation
JOINT rRing2
{
OFFSET -4.54 0 0
CHANNELS 6 Xposition Yposition Zposition Zrotation Xrotation Yrotation
JOINT rRing3
{
OFFSET -2.50 0 0
CHANNELS 6 Xposition Yposition Zposition Zrotation Xrotation Yrotation
End Site
{
OFFSET -2.20 0 0
}
}
}
}
JOINT rPinky1
{
OFFSET -7.69 0.66 -3.90
CHANNELS 6 Xposition Yposition Zposition Zrotation Xrotation Yrotation
JOINT rPinky2
{
OFFSET -3.21 0 0
CHANNELS 6 Xposition Yposition Zposition Zrotation Xrotation Yrotation
JOINT rPinky3
{
OFFSET -1.92 0 0
CHANNELS 6 Xposition Yposition Zposition Zrotation Xrotation Yrotation
End Site
{
OFFSET -1.78 0 0
}
}
}
}
}
}
}
}
}
}
JOINT lThigh
{
OFFSET 8.73 -0 0
CHANNELS 6 Xposition Yposition Zposition Zrotation Xrotation Yrotation
JOINT lShin
{
OFFSET 0 -46.66 0
CHANNELS 6 Xposition Yposition Zposition Zrotation Xrotation Yrotation
JOINT lFoot
{
OFFSET 0 -40.14 0
CHANNELS 6 Xposition Yposition Zposition Zrotation Xrotation Yrotation
JOINT lToes
{
OFFSET 0 -8.88 14.22
CHANNELS 6 Xposition Yposition Zposition Zrotation Xrotation Yrotation
End Site
{
OFFSET 0 0 6.29
}
}
}
}
}
JOINT rThigh
{
OFFSET -8.73 0 -0
CHANNELS 6 Xposition Yposition Zposition Zrotation Xrotation Yrotation
JOINT rShin
{
OFFSET 0 -46.66 0
CHANNELS 6 Xposition Yposition Zposition Zrotation Xrotation Yrotation
JOINT rFoot
{
OFFSET 0 -40.14 0
CHANNELS 6 Xposition Yposition Zposition Zrotation Xrotation Yrotation
JOINT rToes
{
OFFSET 0 -8.88 14.22
CHANNELS 6 Xposition Yposition Zposition Zrotation Xrotation Yrotation
End Site
{
OFFSET 0 0 6.29
}
}
}
}
}
}
MOTION
Frames: 4
Frame Time: 0.03
-0.38 87.36 -0.27 -3.96 5.12 3.46 0 7.23 0 3.00 5.72 1.84 0 16.54 0 3.14 13.37 3.79 0 34.21 0 1.04 23.67 -3.44 0 6.29 0 -5.82 -35.15 -11.04 4.06 26.61 -1.12 -2.98 -3.69 3.78 14.17 0 0 -70.08 0.74 34.88 26.12 0 0 0.65 12.21 -104.04 27.71 0 0 -3.73 9.05 -18.07 2.29 -0.46 1.83 52.29 56.96 -87.85 5.29 0 0 -14.09 2.06 5.86 3.01 0 0 12.48 -0 0 9.37 0.29 2.59 -73.10 1.20 -1.45 4.34 0 0 -86.12 -1.48 -0.49 2.16 0 0 -2.16 0 0 9.47 0.83 0.29 -76.63 -3.28 -1.10 4.77 0 0 -79.79 -2.69 2.57 2.87 0 0 3.95 0.07 0.39 8.65 1.01 -1.70 -80.47 -4.72 1.07 4.54 0 0 -82.56 2.13 -1.61 2.50 0 0 6.76 0 -0 7.69 0.66 -3.90 -85.76 -22.50 1.11 3.21 0 0 -90.60 -7.38 11.95 1.92 0 0 4.41 0 0 -4.06 26.61 -1.12 4.29 -3.67 0.98 -14.17 0 0 60.01 3.02 -17.56 -26.12 0 0 4.06 5.52 88.78 -27.71 0 0 7.92 -3.55 4.34 -2.29 -0.46 1.83 -52.83 63.82 88.68 -5.29 0 0 11.38 2.32 -5.04 -3.01 0 0 -12.48 -0 0 -9.37 0.29 2.59 67.61 0.98 -6.17 -4.34 0 0 92.10 -2.69 -0.43 -2.16 0 0 2.16 0 0 -9.47 0.83 0.29 72.90 -4.47 -1.49 -4.77 0 0 85.67 -4.01 -3.65 -2.87 0 0 -3.95 0.07 -0.39 -8.65 1.01 -1.70 80.36 -3.27 -1.08 -4.54 0 0 88.44 3.61 2.98 -2.50 0 0 -6.76 0 0 -7.69 0.66 -3.90 93.19 -19.38 0.48 -3.21 0 0 97.38 -5.14 -9.16 -1.92 0 0 -4.41 0 0 8.73 -0 0 0.20 -35.90 12.57 0 -46.66 0 149.17 71.04 -127.10 0 -40.14 0 1.88 -24.18 8.62 0 -8.88 14.22 0 0 0 -8.73 0 -0 4.71 -20.11 -12.34 0 -46.66 0 -13.26 55.05 7.87 0 -40.14 0 3.71 -30.31 -7.10 0 -8.88 14.22 0 0 0 
0.21 89.67 1.48 -2.90 5.18 2.67 0 7.23 0 2.32 5.06 4.01 0 16.54 0 1.72 12.06 8.01 0 34.21 0 0.96 23.54 -4.81 0 6.29 0 -4.86 -32.59 -14.58 4.06 26.61 -1.12 -2.29 -3.67 4.58 14.17 0 0 -66.85 1.70 37.17 26.12 0 0 2.71 13.94 -97.44 27.71 0 0 -3.58 11.31 -17.90 2.29 -0.46 1.83 52.29 56.96 -87.85 5.29 0 0 -14.09 2.06 5.86 3.01 0 0 12.48 -0 0 9.37 0.29 2.59 -71.60 1.16 -1.49 4.34 0 0 -84.62 -1.49 -0.42 2.16 0 0 -2.16 0 0 9.47 0.83 0.29 -75.13 -3.30 -1.09 4.77 0 0 -78.29 -2.62 2.58 2.87 0 0 3.95 0.07 0.39 8.65 1.01 -1.70 -78.97 -4.69 1.24 4.54 0 0 -81.06 2.08 -1.63 2.50 0 0 6.76 0 -0 7.69 0.66 -3.90 -84.17 -22.47 1.45 3.21 0 0 -89.15 -7.08 11.81 1.92 0 0 4.41 0 0 -4.06 26.61 -1.12 3.39 -3.50 2.66 -14.17 0 0 60.24 2.44 -10.67 -26.12 0 0 4.94 3.92 91.85 -27.71 0 0 7.67 -3.83 5.67 -2.29 -0.46 1.83 -52.75 63.95 88.56 -5.29 0 0 11.99 2.27 -5.22 -3.01 0 0 -12.48 -0 0 -9.37 0.29 2.59 68.40 1.00 -6.19 -4.34 0 0 92.90 -2.69 -0.39 -2.16 0 0 2.16 0 0 -9.47 0.83 0.29 73.69 -4.46 -1.49 -4.77 0 0 86.47 -4.07 -3.65 -2.87 0 0 -3.95 0.07 -0.39 -8.65 1.01 -1.70 81.15 -3.28 -0.99 -4.54 0 0 89.23 3.65 2.97 -2.50 0 0 -6.76 0 0 -7.69 0.66 -3.90 94.03 -19.37 0.66 -3.21 0 0 98.16 -5.27 -9.22 -1.92 0 0 -4.41 0 0 8.73 -0 0 0.47 -44.98 10.73 0 -46.66 0 112.92 80.74 -95.90 0 -40.14 0 -12.82 -23.38 4.88 0 -8.88 14.22 0 0 0 -8.73 0 -0 3.54 -1.35 -15.65 0 -46.66 0 -8.98 38.00 8.54 0 -40.14 0 2.49 -23.84 -7.39 0 -8.88 14.22 0 0 0 
0.63 93.25 2.99 -1.78 4.86 3.43 0 7.23 0 1.26 4.26 5.85 0 16.54 0 0.32 10.43 11.72 0 34.21 0 2.37 24.45 -6.82 0 6.29 0 -4.53 -30.87 -18.55 4.06 26.61 -1.12 -1.42 -3.65 5.48 14.17 0 0 -63.38 4.47 38.45 26.12 0 0 4.62 15.42 -90.58 27.71 0 0 -3.29 12.16 -18.00 2.29 -0.46 1.83 52.29 56.96 -87.85 5.29 0 0 -14.09 2.06 5.86 3.01 0 0 12.48 -0 0 9.37 0.29 2.59 -68.03 1.07 -1.57 4.34 0 0 -81.05 -1.51 -0.24 2.16 0 0 -2.16 0 0 9.47 0.83 0.29 -71.56 -3.37 -1.07 4.77 0 0 -74.72 -2.46 2.59 2.87 0 0 3.95 0.07 0.39 8.65 1.01 -1.70 -75.39 -4.60 1.66 4.54 0 0 -77.48 1.98 -1.66 2.50 0 0 6.76 0 -0 7.69 0.66 -3.90 -80.37 -22.35 2.27 3.21 0 0 -85.70 -6.37 11.47 1.92 0 0 4.41 0 0 -4.06 26.61 -1.12 3.68 -3.42 3.51 -14.17 0 0 60.33 1.88 -9.60 -26.12 0 0 8.13 3.53 96.34 -27.71 0 0 9.46 -6.79 11.51 -2.29 -0.46 1.83 -52.55 64.26 88.26 -5.29 0 0 13.50 2.13 -5.68 -3.01 0 0 -12.48 -0 0 -9.37 0.29 2.59 70.35 1.05 -6.24 -4.34 0 0 94.84 -2.71 -0.29 -2.16 0 0 2.16 0 0 -9.47 0.83 0.29 75.64 -4.43 -1.47 -4.77 0 0 88.41 -4.19 -3.63 -2.87 0 0 -3.95 0.07 -0.39 -8.65 1.01 -1.70 83.10 -3.31 -0.76 -4.54 0 0 91.17 3.75 2.94 -2.50 0 0 -6.76 0 0 -7.69 0.66 -3.90 96.07 -19.33 1.10 -3.21 0 0 100.07 -5.58 -9.34 -1.92 0 0 -4.41 0 0 8.73 -0 0 -1.66 -44.87 7.75 0 -46.66 0 13.52 68.56 1.90 0 -40.14 0 -3.45 -21.33 7.34 0 -8.88 14.22 0 0 0 -8.73 0 -0 1.43 14.80 -19.29 0 -46.66 0 -4.69 19.06 13.22 0 -40.14 0 9.05 5.80 -8.50 0 -8.88 14.22 0 0 0 
1.09 96.18 4.86 -0.15 5.01 5.68 0 7.23 0 -0.18 3.14 6.77 0 16.54 0 -1.30 8.10 14.10 0 34.21 0 2.86 25.45 -8.11 0 6.29 0 -2.09 -27.74 -20.77 4.06 26.61 -1.12 -0.54 -3.63 6.37 14.17 0 0 -60.13 7.97 38.94 26.12 0 0 6.09 16.60 -84.78 27.71 0 0 -3.04 12.02 -18.24 2.29 -0.46 1.83 52.29 56.96 -87.85 5.29 0 0 -14.09 2.06 5.86 3.01 0 0 12.48 -0 0 9.37 0.29 2.59 -63.76 0.95 -1.66 4.34 0 0 -76.78 -1.52 -0.03 2.16 0 0 -2.16 0 0 9.47 0.83 0.29 -67.29 -3.45 -1.05 4.77 0 0 -70.46 -2.27 2.59 2.87 0 0 3.95 0.07 0.39 8.65 1.01 -1.70 -71.11 -4.45 2.14 4.54 0 0 -73.22 1.86 -1.70 2.50 0 0 6.76 0 -0 7.69 0.66 -3.90 -75.84 -22.15 3.23 3.21 0 0 -81.59 -5.56 11.00 1.92 0 0 4.41 0 0 -4.06 26.61 -1.12 3.93 -3.49 2.82 -14.17 0 0 60.01 2.06 -8.30 -26.12 0 0 10.25 3.85 101.08 -27.71 0 0 13.73 -8.04 17.50 -2.29 -0.46 1.83 -52.30 64.64 87.88 -5.29 0 0 15.38 1.93 -6.25 -3.01 0 0 -12.48 -0 0 -9.37 0.29 2.59 72.79 1.11 -6.30 -4.34 0 0 97.29 -2.72 -0.17 -2.16 0 0 2.16 0 0 -9.47 0.83 0.29 78.08 -4.38 -1.46 -4.77 0 0 90.85 -4.34 -3.59 -2.87 0 0 -3.95 0.07 -0.39 -8.65 1.01 -1.70 85.53 -3.33 -0.47 -4.54 0 0 93.61 3.87 2.90 -2.50 0 0 -6.76 0 0 -7.69 0.66 -3.90 98.64 -19.28 1.65 -3.21 0 0 102.45 -5.97 -9.48 -1.92 0 0 -4.41 0 0 8.73 -0 0 -6.41 -38.67 2.80 0 -46.66 0 2.60 37.21 8.55 0 -40.14 0 -2.76 -16.65 7.72 0 -8.88 14.22 0 0 0 -8.73 0 -0 0.66 22.48 -23.18 0 -46.66 0 -5.95 15.86 15.11 0 -40.14 0 14.41 22.61 -10.62 0 -8.88 14.22 0 0 0 
